<svg id="visual" viewBox="0 0 900 600" width="900" height="600" xmlns="http://www.w3.org/2000/svg" xmlns:xlink="http://www.w3.org/1999/xlink" version="1.1"><rect x="0" y="0" width="900" height="600" fill="#ffffff"></rect><path d="M0 352L129 396L257 383L386 367L514 427L643 392L771 420L900 436L900 601L771 601L643 601L514 601L386 601L257 601L129 601L0 601Z" fill="#ff7300"></path><path d="M0 455L129 414L257 475L386 422L514 474L643 415L771 394L900 432L900 601L771 601L643 601L514 601L386 601L257 601L129 601L0 601Z" fill="#fe840f"></path><path d="M0 482L129 452L257 483L386 447L514 446L643 479L771 452L900 462L900 601L771 601L643 601L514 601L386 601L257 601L129 601L0 601Z" fill="#fd931e"></path><path d="M0 530L129 542L257 509L386 523L514 537L643 512L771 531L900 529L900 601L771 601L643 601L514 601L386 601L257 601L129 601L0 601Z" fill="#fca12d"></path><path d="M0 571L129 536L257 563L386 531L514 560L643 553L771 570L900 553L900 601L771 601L643 601L514 601L386 601L257 601L129 601L0 601Z" fill="#fcaf3c"></path></svg>